<?xml version="1.0" encoding="UTF-8" standalone="no"?>
<svg width="214.577mm" height="175.419mm"
 xmlns="http://www.w3.org/2000/svg" xmlns:xlink="http://www.w3.org/1999/xlink"  version="1.2" baseProfile="tiny">
<title>Sheet 3</title>
<desc>Rendered by Tableau</desc>
<defs>
</defs>
<g fill="none" stroke="black" stroke-width="1" fill-rule="evenodd" stroke-linecap="square" stroke-linejoin="bevel" >

<clipPath id ="clip1" >
<rect x="0" y="0" height="664" width="812" transform="matrix(1,0,0,1,0,0)" />
</clipPath>
<g  clip-path="url(#clip1)" 
>
<g fill="none" stroke="#000000" stroke-opacity="1" stroke-width="1" stroke-linecap="square" stroke-linejoin="bevel" transform="matrix(1,0,0,1,0,0)"
font-family="Benton Sans Book" font-size="16" font-weight="400" font-style="normal" 
>
</g>
</g>

<clipPath id ="clip2" >
<rect x="0" y="0" height="664" width="812" transform="matrix(1,0,0,1,0,0)" />
</clipPath>
<g  clip-path="url(#clip2)" 
>
<g fill="none" stroke="#000000" stroke-opacity="1" stroke-width="1" stroke-linecap="square" stroke-linejoin="bevel" transform="matrix(1,0,0,1,0,0)"
font-family="Benton Sans Book" font-size="16" font-weight="400" font-style="normal" 
>
</g>
</g>

<clipPath id ="clip3" >
<rect x="0" y="0" height="663" width="811" transform="matrix(1,0,0,1,0,0)" />
</clipPath>
<g  clip-path="url(#clip3)" 
>
<g fill="none" stroke="#000000" stroke-opacity="1" stroke-width="1" stroke-linecap="square" stroke-linejoin="bevel" transform="matrix(1,0,0,1,0,0)"
font-family="Benton Sans Book" font-size="16" font-weight="400" font-style="normal" 
>
</g>
</g>

<g  clip-path="url(#clip3)" 
>
<g fill="#000000" fill-opacity="0" stroke="none" transform="matrix(1,0,0,1,0,0)"
font-family="Benton Sans Book" font-size="16" font-weight="400" font-style="normal" 
>
<rect x="0" y="0" width="812" height="664"/>
</g>
</g>

<clipPath id ="clip4" >
<rect x="0" y="0" height="664" width="812" transform="matrix(1,0,0,1,0,0)" />
</clipPath>
<g  clip-path="url(#clip4)" 
>
<g fill="none" stroke="#000000" stroke-opacity="1" stroke-width="1" stroke-linecap="square" stroke-linejoin="bevel" transform="matrix(1,0,0,1,0,0)"
font-family="Benton Sans Book" font-size="16" font-weight="400" font-style="normal" 
>
</g>
</g>

<clipPath id ="clip5" >
<rect x="0" y="0" height="664" width="812" transform="matrix(1,0,0,1,0,0)" />
</clipPath>
<g  clip-path="url(#clip5)" 
>
<g fill="none" stroke="#000000" stroke-opacity="1" stroke-width="1" stroke-linecap="square" stroke-linejoin="bevel" transform="matrix(1,0,0,1,0,0)"
font-family="Benton Sans Book" font-size="16" font-weight="400" font-style="normal" 
>
</g>
</g>

<clipPath id ="clip6" >
<rect x="0" y="0" height="664" width="812" transform="matrix(1,0,0,1,0,0)" />
</clipPath>
<g  clip-path="url(#clip6)" 
>
<g fill="none" stroke="#000000" stroke-opacity="1" stroke-width="1" stroke-linecap="square" stroke-linejoin="bevel" transform="matrix(1,0,0,1,0,0)"
font-family="Benton Sans Book" font-size="16" font-weight="400" font-style="normal" 
>
</g>
</g>

<clipPath id ="clip7" >
<rect x="0" y="0" height="664" width="812" transform="matrix(1,0,0,1,0,0)" />
</clipPath>
<g  clip-path="url(#clip7)" 
>
<g fill="none" stroke="#000000" stroke-opacity="1" stroke-width="1" stroke-linecap="square" stroke-linejoin="bevel" transform="matrix(1,0,0,1,0,0)"
font-family="Benton Sans Book" font-size="16" font-weight="400" font-style="normal" 
>
</g>
</g>

<g  clip-path="url(#clip7)" 
>
<g fill="#000000" fill-opacity="0" stroke="none" transform="matrix(1,0,0,1,0,0)"
font-family="Benton Sans Book" font-size="16" font-weight="400" font-style="normal" 
>
<rect x="0" y="0" width="812" height="664"/>
</g>
</g>

<clipPath id ="clip8" >
<rect x="0" y="0" height="664" width="812" transform="matrix(1,0,0,1,0,0)" />
</clipPath>
<g  clip-path="url(#clip8)" 
>
<g fill="none" stroke="#000000" stroke-opacity="1" stroke-width="1" stroke-linecap="square" stroke-linejoin="bevel" transform="matrix(1,0,0,1,0,0)"
font-family="Benton Sans Book" font-size="16" font-weight="400" font-style="normal" 
>
</g>
</g>

<clipPath id ="clip9" >
<rect x="0" y="0" height="663" width="811" transform="matrix(1,0,0,1,0,0)" />
</clipPath>
<g  clip-path="url(#clip9)" 
>
<g fill="none" stroke="#000000" stroke-opacity="1" stroke-width="1" stroke-linecap="square" stroke-linejoin="bevel" transform="matrix(1,0,0,1,0,0)"
font-family="Benton Sans Book" font-size="16" font-weight="400" font-style="normal" 
>
</g>
</g>

<clipPath id ="clip10" >
<rect x="0" y="0" height="664" width="812" transform="matrix(1,0,0,1,0,0)" />
</clipPath>
<g  clip-path="url(#clip10)" 
>
<g fill="none" stroke="#000000" stroke-opacity="1" stroke-width="1" stroke-linecap="square" stroke-linejoin="bevel" transform="matrix(1,0,0,1,0,0)"
font-family="Benton Sans Book" font-size="16" font-weight="400" font-style="normal" 
>
</g>
</g>

<clipPath id ="clip11" >
<rect x="0" y="0" height="664" width="812" transform="matrix(1,0,0,1,0,0)" />
</clipPath>
<g  clip-path="url(#clip11)" 
>
<g fill="none" stroke="#000000" stroke-opacity="1" stroke-width="1" stroke-linecap="square" stroke-linejoin="bevel" transform="matrix(1,0,0,1,0,0)"
font-family="Benton Sans Book" font-size="16" font-weight="400" font-style="normal" 
>
</g>
</g>

<clipPath id ="clip12" >
<rect x="0" y="0" height="663" width="811" transform="matrix(1,0,0,1,0,0)" />
</clipPath>
<g  clip-path="url(#clip12)" 
>
<g fill="none" stroke="#000000" stroke-opacity="1" stroke-width="1" stroke-linecap="square" stroke-linejoin="bevel" transform="matrix(1,0,0,1,0,0)"
font-family="Benton Sans Book" font-size="16" font-weight="400" font-style="normal" 
>
</g>
</g>

<g  clip-path="url(#clip12)" 
>
<g fill="#5f87e7" fill-opacity="1" stroke="none" transform="matrix(1,0,0,1,0,0)"
font-family="Benton Sans Book" font-size="16" font-weight="400" font-style="normal" 
>
<path vector-effect="none" fill-rule="evenodd" d="M405.5,331.5 L405.5,165.75 C497.041,165.75 571.25,239.959 571.25,331.5 C571.25,407.813 519.678,472.08 449.526,491.339 L405.5,331.5"/>
</g>
</g>

<g  clip-path="url(#clip12)" 
>
<g fill="#b4daea" fill-opacity="1" stroke="none" transform="matrix(1,0,0,1,0,0)"
font-family="Benton Sans Book" font-size="16" font-weight="400" font-style="normal" 
>
<path vector-effect="none" fill-rule="evenodd" d="M405.5,331.5 L449.526,491.339 C435.477,495.196 420.729,497.25 405.5,497.25 C336.376,497.25 277.135,454.936 252.275,394.821 L405.5,331.5"/>
</g>
</g>

<g  clip-path="url(#clip12)" 
>
<g fill="#ffa860" fill-opacity="1" stroke="none" transform="matrix(1,0,0,1,0,0)"
font-family="Benton Sans Book" font-size="16" font-weight="400" font-style="normal" 
>
<path vector-effect="none" fill-rule="evenodd" d="M405.5,331.5 L252.275,394.821 C244.2,375.295 239.75,353.917 239.75,331.5 C239.75,283.648 260.027,240.533 292.458,210.278 L405.5,331.5"/>
</g>
</g>

<g  clip-path="url(#clip12)" 
>
<g fill="#65e4b1" fill-opacity="1" stroke="none" transform="matrix(1,0,0,1,0,0)"
font-family="Benton Sans Book" font-size="16" font-weight="400" font-style="normal" 
>
<path vector-effect="none" fill-rule="evenodd" d="M405.5,331.5 L292.458,210.278 C300.638,202.646 309.591,195.833 319.18,189.973 L405.5,331.5"/>
</g>
</g>

<g  clip-path="url(#clip12)" 
>
<g fill="#918af5" fill-opacity="1" stroke="none" transform="matrix(1,0,0,1,0,0)"
font-family="Benton Sans Book" font-size="16" font-weight="400" font-style="normal" 
>
<path vector-effect="none" fill-rule="evenodd" d="M405.5,331.5 L319.18,189.973 C330.81,182.865 343.377,177.153 356.618,173.076 L405.5,331.5"/>
</g>
</g>

<g  clip-path="url(#clip12)" 
>
<g fill="#f7beee" fill-opacity="1" stroke="none" transform="matrix(1,0,0,1,0,0)"
font-family="Benton Sans Book" font-size="16" font-weight="400" font-style="normal" 
>
<path vector-effect="none" fill-rule="evenodd" d="M405.5,331.5 L356.618,173.076 C364.245,170.727 372.069,168.92 380.03,167.695 L405.5,331.5"/>
</g>
</g>

<g  clip-path="url(#clip12)" 
>
<g fill="#beebae" fill-opacity="1" stroke="none" transform="matrix(1,0,0,1,0,0)"
font-family="Benton Sans Book" font-size="16" font-weight="400" font-style="normal" 
>
<path vector-effect="none" fill-rule="evenodd" d="M405.5,331.5 L380.03,167.695 C384.639,166.985 389.258,166.47 393.889,166.15 L405.5,331.5"/>
</g>
</g>

<g  clip-path="url(#clip12)" 
>
<g fill="#d135de" fill-opacity="1" stroke="none" transform="matrix(1,0,0,1,0,0)"
font-family="Benton Sans Book" font-size="16" font-weight="400" font-style="normal" 
>
<path vector-effect="none" fill-rule="evenodd" d="M405.5,331.5 L393.889,166.15 C396.803,165.949 399.695,165.825 402.592,165.775 L405.5,331.5"/>
</g>
</g>

<g  clip-path="url(#clip12)" 
>
<g fill="#b3ead1" fill-opacity="1" stroke="none" transform="matrix(1,0,0,1,0,0)"
font-family="Benton Sans Book" font-size="16" font-weight="400" font-style="normal" 
>
<path vector-effect="none" fill-rule="evenodd" d="M405.5,331.5 L402.592,165.775 C403.569,165.758 404.534,165.75 405.5,165.75 L405.5,331.5"/>
</g>
</g>

<clipPath id ="clip13" >
<rect x="0" y="0" height="664" width="812" transform="matrix(1,0,0,1,0,0)" />
</clipPath>
<g  clip-path="url(#clip13)" 
>
<g fill="#b3ead1" fill-opacity="1" stroke="none" transform="matrix(1,0,0,1,0,0)"
font-family="Benton Sans Book" font-size="16" font-weight="400" font-style="normal" 
>
</g>
</g>

<clipPath id ="clip14" >
<rect x="0" y="0" height="664" width="812" transform="matrix(1,0,0,1,0,0)" />
</clipPath>
<g  clip-path="url(#clip14)" 
>
<g fill="#b3ead1" fill-opacity="1" stroke="none" transform="matrix(1,0,0,1,0,0)"
font-family="Benton Sans Book" font-size="16" font-weight="400" font-style="normal" 
>
</g>
</g>

<clipPath id ="clip15" >
<rect x="0" y="0" height="663" width="811" transform="matrix(1,0,0,1,0,0)" />
</clipPath>
<g  clip-path="url(#clip15)" 
>
<g fill="#b3ead1" fill-opacity="1" stroke="none" transform="matrix(1,0,0,1,0,0)"
font-family="Benton Sans Book" font-size="16" font-weight="400" font-style="normal" 
>
</g>
</g>

<clipPath id ="clip16" >
<rect x="0" y="0" height="664" width="812" transform="matrix(1,0,0,1,0,0)" />
</clipPath>
<g  clip-path="url(#clip16)" 
>
<g fill="#b3ead1" fill-opacity="1" stroke="none" transform="matrix(1,0,0,1,0,0)"
font-family="Benton Sans Book" font-size="16" font-weight="400" font-style="normal" 
>
</g>
</g>

<clipPath id ="clip17" >
<rect x="0" y="0" height="664" width="812" transform="matrix(1,0,0,1,0,0)" />
</clipPath>
<g  clip-path="url(#clip17)" 
>
<g fill="#b3ead1" fill-opacity="1" stroke="none" transform="matrix(1,0,0,1,0,0)"
font-family="Benton Sans Book" font-size="16" font-weight="400" font-style="normal" 
>
</g>
</g>

<clipPath id ="clip18" >
<rect x="0" y="0" height="663" width="811" transform="matrix(1,0,0,1,0,0)" />
</clipPath>
<g  clip-path="url(#clip18)" 
>
<g fill="#b3ead1" fill-opacity="1" stroke="none" transform="matrix(1,0,0,1,0,0)"
font-family="Benton Sans Book" font-size="16" font-weight="400" font-style="normal" 
>
</g>
</g>

<clipPath id ="clip19" >
<rect x="0" y="0" height="664" width="812" transform="matrix(1,0,0,1,0,0)" />
</clipPath>
<g  clip-path="url(#clip19)" 
>
<g fill="#b3ead1" fill-opacity="1" stroke="none" transform="matrix(1,0,0,1,0,0)"
font-family="Benton Sans Book" font-size="16" font-weight="400" font-style="normal" 
>
</g>
</g>

<clipPath id ="clip20" >
<rect x="0" y="0" height="664" width="812" transform="matrix(1,0,0,1,0,0)" />
</clipPath>
<g  clip-path="url(#clip20)" 
>
<g fill="#b3ead1" fill-opacity="1" stroke="none" transform="matrix(1,0,0,1,0,0)"
font-family="Benton Sans Book" font-size="16" font-weight="400" font-style="normal" 
>
</g>
</g>

<clipPath id ="clip21" >
<rect x="0" y="0" height="663" width="811" transform="matrix(1,0,0,1,0,0)" />
</clipPath>
<g  clip-path="url(#clip21)" 
>
<g fill="#b3ead1" fill-opacity="1" stroke="none" transform="matrix(1,0,0,1,0,0)"
font-family="Benton Sans Book" font-size="16" font-weight="400" font-style="normal" 
>
</g>
</g>

<clipPath id ="clip22" >
<rect x="0" y="0" height="664" width="812" transform="matrix(1,0,0,1,0,0)" />
</clipPath>
<g  clip-path="url(#clip22)" 
>
<g fill="#b3ead1" fill-opacity="1" stroke="none" transform="matrix(1,0,0,1,0,0)"
font-family="Benton Sans Book" font-size="16" font-weight="400" font-style="normal" 
>
</g>
</g>

<clipPath id ="clip23" >
<rect x="0" y="0" height="664" width="812" transform="matrix(1,0,0,1,0,0)" />
</clipPath>
<g  clip-path="url(#clip23)" 
>
<g fill="#b3ead1" fill-opacity="1" stroke="none" transform="matrix(1,0,0,1,0,0)"
font-family="Benton Sans Book" font-size="16" font-weight="400" font-style="normal" 
>
</g>
</g>

<clipPath id ="clip24" >
<rect x="0" y="0" height="663" width="811" transform="matrix(1,0,0,1,0,0)" />
</clipPath>
<g  clip-path="url(#clip24)" 
>
<g fill="#b3ead1" fill-opacity="1" stroke="none" transform="matrix(1,0,0,1,0,0)"
font-family="Benton Sans Book" font-size="16" font-weight="400" font-style="normal" 
>
</g>
</g>

<clipPath id ="clip25" >
<rect x="0" y="0" height="664" width="812" transform="matrix(1,0,0,1,0,0)" />
</clipPath>
<g  clip-path="url(#clip25)" 
>
<g fill="#b3ead1" fill-opacity="1" stroke="none" transform="matrix(1,0,0,1,0,0)"
font-family="Benton Sans Book" font-size="16" font-weight="400" font-style="normal" 
>
</g>
</g>

<clipPath id ="clip26" >
<rect x="0" y="0" height="664" width="812" transform="matrix(1,0,0,1,0,0)" />
</clipPath>
<g  clip-path="url(#clip26)" 
>
<g fill="#b3ead1" fill-opacity="1" stroke="none" transform="matrix(1,0,0,1,0,0)"
font-family="Benton Sans Book" font-size="16" font-weight="400" font-style="normal" 
>
</g>
</g>

<clipPath id ="clip27" >
<rect x="0" y="0" height="663" width="811" transform="matrix(1,0,0,1,0,0)" />
</clipPath>
<g  clip-path="url(#clip27)" 
>
<g fill="#b3ead1" fill-opacity="1" stroke="none" transform="matrix(1,0,0,1,0,0)"
font-family="Benton Sans Book" font-size="16" font-weight="400" font-style="normal" 
>
</g>
</g>

<g  clip-path="url(#clip27)" 
>
<g fill="none" stroke="#d4d4d4" stroke-opacity="1" stroke-width="1" stroke-linecap="square" stroke-linejoin="bevel" transform="matrix(1,0,0,1,0,0)"
font-family="Benton Sans Book" font-size="16" font-weight="400" font-style="normal" 
>
<polyline fill="none" vector-effect="none" points="186,352 281,331 " />
</g>
</g>

<g  clip-path="url(#clip27)" 
>
<g fill="#fafafa" fill-opacity="0.901961" stroke="none" transform="matrix(1,0,0,1,0,0)"
font-family="Benton Sans Book" font-size="16" font-weight="400" font-style="normal" 
>
<rect x="122" y="329" width="64" height="46"/>
</g>
</g>

<g  clip-path="url(#clip27)" 
>
<g fill="none" stroke="#000000" stroke-opacity="0" stroke-width="1" stroke-linecap="square" stroke-linejoin="miter" stroke-miterlimit="2" transform="matrix(1,0,0,1,0,0)"
font-family="Benton Sans Book" font-size="16" font-weight="400" font-style="normal" 
>
<rect x="122" y="329" width="64" height="46"/>
</g>
</g>

<g  clip-path="url(#clip27)" 
>
<g fill="none" stroke="#4d4bf5" stroke-opacity="1" stroke-width="1" stroke-linecap="square" stroke-linejoin="bevel" transform="matrix(1,0,0,1,136,348)"
font-family="Tableau Semibold" font-size="11" font-weight="400" font-style="normal" 
>
<text fill="#4d4bf5" fill-opacity="1" stroke="none" xml:space="preserve" x="0" y="0" font-family="Tableau Semibold" font-size="11" font-weight="400" font-style="normal" 
 >Casual</text>
</g>
</g>

<g  clip-path="url(#clip27)" 
>
<g fill="none" stroke="#4d4bf5" stroke-opacity="1" stroke-width="1" stroke-linecap="square" stroke-linejoin="bevel" transform="matrix(1,0,0,1,134,363)"
font-family="Tableau Semibold" font-size="11" font-weight="400" font-style="normal" 
>
<text fill="#4d4bf5" fill-opacity="1" stroke="none" xml:space="preserve" x="0" y="0" font-family="Tableau Semibold" font-size="11" font-weight="400" font-style="normal" 
 >19,28%</text>
</g>
</g>

<g  clip-path="url(#clip27)" 
>
<g fill="none" stroke="#d4d4d4" stroke-opacity="1" stroke-width="1" stroke-linecap="square" stroke-linejoin="bevel" transform="matrix(1,0,0,1,0,0)"
font-family="Tableau Semibold" font-size="11" font-weight="400" font-style="normal" 
>
<polyline fill="none" vector-effect="none" points="238,447 321,422 " />
</g>
</g>

<g  clip-path="url(#clip27)" 
>
<g fill="#fafafa" fill-opacity="0.901961" stroke="none" transform="matrix(1,0,0,1,0,0)"
font-family="Tableau Semibold" font-size="11" font-weight="400" font-style="normal" 
>
<rect x="143" y="424" width="95" height="46"/>
</g>
</g>

<g  clip-path="url(#clip27)" 
>
<g fill="none" stroke="#000000" stroke-opacity="0" stroke-width="1" stroke-linecap="square" stroke-linejoin="miter" stroke-miterlimit="2" transform="matrix(1,0,0,1,0,0)"
font-family="Tableau Semibold" font-size="11" font-weight="400" font-style="normal" 
>
<rect x="143" y="424" width="95" height="46"/>
</g>
</g>

<g  clip-path="url(#clip27)" 
>
<g fill="none" stroke="#2039d7" stroke-opacity="1" stroke-width="1" stroke-linecap="square" stroke-linejoin="bevel" transform="matrix(1,0,0,1,163,443)"
font-family="Tableau Semibold" font-size="11" font-weight="400" font-style="normal" 
>
<text fill="#2039d7" fill-opacity="1" stroke="none" xml:space="preserve" x="0" y="0" font-family="Tableau Semibold" font-size="11" font-weight="400" font-style="normal" 
 >Adventure</text>
</g>
</g>

<g  clip-path="url(#clip27)" 
>
<g fill="none" stroke="#2039d7" stroke-opacity="1" stroke-width="1" stroke-linecap="square" stroke-linejoin="bevel" transform="matrix(1,0,0,1,170,458)"
font-family="Tableau Semibold" font-size="11" font-weight="400" font-style="normal" 
>
<text fill="#2039d7" fill-opacity="1" stroke="none" xml:space="preserve" x="0" y="0" font-family="Tableau Semibold" font-size="11" font-weight="400" font-style="normal" 
 >23,04%</text>
</g>
</g>

<g  clip-path="url(#clip27)" 
>
<g fill="none" stroke="#d4d4d4" stroke-opacity="1" stroke-width="1" stroke-linecap="square" stroke-linejoin="bevel" transform="matrix(1,0,0,1,0,0)"
font-family="Tableau Semibold" font-size="11" font-weight="400" font-style="normal" 
>
<polyline fill="none" vector-effect="none" points="615,238 491,328 " />
</g>
</g>

<g  clip-path="url(#clip27)" 
>
<g fill="#fafafa" fill-opacity="0.901961" stroke="none" transform="matrix(1,0,0,1,0,0)"
font-family="Tableau Semibold" font-size="11" font-weight="400" font-style="normal" 
>
<rect x="615" y="215" width="64" height="46"/>
</g>
</g>

<g  clip-path="url(#clip27)" 
>
<g fill="none" stroke="#000000" stroke-opacity="0" stroke-width="1" stroke-linecap="square" stroke-linejoin="miter" stroke-miterlimit="2" transform="matrix(1,0,0,1,0,0)"
font-family="Tableau Semibold" font-size="11" font-weight="400" font-style="normal" 
>
<rect x="615" y="215" width="64" height="46"/>
</g>
</g>

<g  clip-path="url(#clip27)" 
>
<g fill="none" stroke="#4d4bf5" stroke-opacity="1" stroke-width="1" stroke-linecap="square" stroke-linejoin="bevel" transform="matrix(1,0,0,1,630,234)"
font-family="Tableau Semibold" font-size="11" font-weight="400" font-style="normal" 
>
<text fill="#4d4bf5" fill-opacity="1" stroke="none" xml:space="preserve" x="0" y="0" font-family="Tableau Semibold" font-size="11" font-weight="400" font-style="normal" 
 >Action</text>
</g>
</g>

<g  clip-path="url(#clip27)" 
>
<g fill="none" stroke="#4d4bf5" stroke-opacity="1" stroke-width="1" stroke-linecap="square" stroke-linejoin="bevel" transform="matrix(1,0,0,1,627,249)"
font-family="Tableau Semibold" font-size="11" font-weight="400" font-style="normal" 
>
<text fill="#4d4bf5" fill-opacity="1" stroke="none" xml:space="preserve" x="0" y="0" font-family="Tableau Semibold" font-size="11" font-weight="400" font-style="normal" 
 >45,73%</text>
</g>
</g>

<g  clip-path="url(#clip27)" 
>
<g fill="none" stroke="#d4d4d4" stroke-opacity="1" stroke-width="1" stroke-linecap="square" stroke-linejoin="bevel" transform="matrix(1,0,0,1,0,0)"
font-family="Tableau Semibold" font-size="11" font-weight="400" font-style="normal" 
>
<polyline fill="none" vector-effect="none" points="228,180 316,214 " />
</g>
</g>

<g  clip-path="url(#clip27)" 
>
<g fill="#fafafa" fill-opacity="0.901961" stroke="none" transform="matrix(1,0,0,1,0,0)"
font-family="Tableau Semibold" font-size="11" font-weight="400" font-style="normal" 
>
<rect x="164" y="157" width="64" height="46"/>
</g>
</g>

<g  clip-path="url(#clip27)" 
>
<g fill="none" stroke="#000000" stroke-opacity="0" stroke-width="1" stroke-linecap="square" stroke-linejoin="miter" stroke-miterlimit="2" transform="matrix(1,0,0,1,0,0)"
font-family="Tableau Semibold" font-size="11" font-weight="400" font-style="normal" 
>
<rect x="164" y="157" width="64" height="46"/>
</g>
</g>

<g  clip-path="url(#clip27)" 
>
<g fill="none" stroke="#4d4bf5" stroke-opacity="1" stroke-width="1" stroke-linecap="square" stroke-linejoin="bevel" transform="matrix(1,0,0,1,172,176)"
font-family="Tableau Semibold" font-size="11" font-weight="400" font-style="normal" 
>
<text fill="#4d4bf5" fill-opacity="1" stroke="none" xml:space="preserve" x="0" y="0" font-family="Tableau Semibold" font-size="11" font-weight="400" font-style="normal" 
 >Role-Play</text>
</g>
</g>

<g  clip-path="url(#clip27)" 
>
<g fill="none" stroke="#4d4bf5" stroke-opacity="1" stroke-width="1" stroke-linecap="square" stroke-linejoin="bevel" transform="matrix(1,0,0,1,179,191)"
font-family="Tableau Semibold" font-size="11" font-weight="400" font-style="normal" 
>
<text fill="#4d4bf5" fill-opacity="1" stroke="none" xml:space="preserve" x="0" y="0" font-family="Tableau Semibold" font-size="11" font-weight="400" font-style="normal" 
 >3,25%</text>
</g>
</g>

<g  clip-path="url(#clip27)" 
>
<g fill="none" stroke="#d4d4d4" stroke-opacity="1" stroke-width="1" stroke-linecap="square" stroke-linejoin="bevel" transform="matrix(1,0,0,1,0,0)"
font-family="Tableau Semibold" font-size="11" font-weight="400" font-style="normal" 
>
<polyline fill="none" vector-effect="none" points="285,121 352,200 " />
</g>
</g>

<g  clip-path="url(#clip27)" 
>
<g fill="#fafafa" fill-opacity="0.901961" stroke="none" transform="matrix(1,0,0,1,0,0)"
font-family="Tableau Semibold" font-size="11" font-weight="400" font-style="normal" 
>
<rect x="213" y="98" width="72" height="46"/>
</g>
</g>

<g  clip-path="url(#clip27)" 
>
<g fill="none" stroke="#000000" stroke-opacity="0" stroke-width="1" stroke-linecap="square" stroke-linejoin="miter" stroke-miterlimit="2" transform="matrix(1,0,0,1,0,0)"
font-family="Tableau Semibold" font-size="11" font-weight="400" font-style="normal" 
>
<rect x="213" y="98" width="72" height="46"/>
</g>
</g>

<g  clip-path="url(#clip27)" 
>
<g fill="none" stroke="#4d4bf5" stroke-opacity="1" stroke-width="1" stroke-linecap="square" stroke-linejoin="bevel" transform="matrix(1,0,0,1,221,117)"
font-family="Tableau Semibold" font-size="11" font-weight="400" font-style="normal" 
>
<text fill="#4d4bf5" fill-opacity="1" stroke="none" xml:space="preserve" x="0" y="0" font-family="Tableau Semibold" font-size="11" font-weight="400" font-style="normal" 
 >Simulation</text>
</g>
</g>

<g  clip-path="url(#clip27)" 
>
<g fill="none" stroke="#4d4bf5" stroke-opacity="1" stroke-width="1" stroke-linecap="square" stroke-linejoin="bevel" transform="matrix(1,0,0,1,232,132)"
font-family="Tableau Semibold" font-size="11" font-weight="400" font-style="normal" 
>
<text fill="#4d4bf5" fill-opacity="1" stroke="none" xml:space="preserve" x="0" y="0" font-family="Tableau Semibold" font-size="11" font-weight="400" font-style="normal" 
 >3,94%</text>
</g>
</g>

<g  clip-path="url(#clip27)" 
>
<g fill="none" stroke="#d4d4d4" stroke-opacity="1" stroke-width="1" stroke-linecap="square" stroke-linejoin="bevel" transform="matrix(1,0,0,1,0,0)"
font-family="Tableau Semibold" font-size="11" font-weight="400" font-style="normal" 
>
<polyline fill="none" vector-effect="none" points="337,118 380,191 " />
</g>
</g>

<g  clip-path="url(#clip27)" 
>
<g fill="#fafafa" fill-opacity="0.901961" stroke="none" transform="matrix(1,0,0,1,0,0)"
font-family="Tableau Semibold" font-size="11" font-weight="400" font-style="normal" 
>
<rect x="305" y="72" width="64" height="46"/>
</g>
</g>

<g  clip-path="url(#clip27)" 
>
<g fill="none" stroke="#000000" stroke-opacity="0" stroke-width="1" stroke-linecap="square" stroke-linejoin="miter" stroke-miterlimit="2" transform="matrix(1,0,0,1,0,0)"
font-family="Tableau Semibold" font-size="11" font-weight="400" font-style="normal" 
>
<rect x="305" y="72" width="64" height="46"/>
</g>
</g>

<g  clip-path="url(#clip27)" 
>
<g fill="none" stroke="#4d4bf5" stroke-opacity="1" stroke-width="1" stroke-linecap="square" stroke-linejoin="bevel" transform="matrix(1,0,0,1,314,91)"
font-family="Tableau Semibold" font-size="11" font-weight="400" font-style="normal" 
>
<text fill="#4d4bf5" fill-opacity="1" stroke="none" xml:space="preserve" x="0" y="0" font-family="Tableau Semibold" font-size="11" font-weight="400" font-style="normal" 
 >Strategy</text>
</g>
</g>

<g  clip-path="url(#clip27)" 
>
<g fill="none" stroke="#4d4bf5" stroke-opacity="1" stroke-width="1" stroke-linecap="square" stroke-linejoin="bevel" transform="matrix(1,0,0,1,320,106)"
font-family="Tableau Semibold" font-size="11" font-weight="400" font-style="normal" 
>
<text fill="#4d4bf5" fill-opacity="1" stroke="none" xml:space="preserve" x="0" y="0" font-family="Tableau Semibold" font-size="11" font-weight="400" font-style="normal" 
 >2,32%</text>
</g>
</g>

<g  clip-path="url(#clip27)" 
>
<g fill="none" stroke="#d4d4d4" stroke-opacity="1" stroke-width="1" stroke-linecap="square" stroke-linejoin="bevel" transform="matrix(1,0,0,1,0,0)"
font-family="Tableau Semibold" font-size="11" font-weight="400" font-style="normal" 
>
<polyline fill="none" vector-effect="none" points="375,69 389,177 " />
</g>
</g>

<g  clip-path="url(#clip27)" 
>
<g fill="#fafafa" fill-opacity="0.901961" stroke="none" transform="matrix(1,0,0,1,0,0)"
font-family="Tableau Semibold" font-size="11" font-weight="400" font-style="normal" 
>
<rect x="343" y="23" width="64" height="46"/>
</g>
</g>

<g  clip-path="url(#clip27)" 
>
<g fill="none" stroke="#000000" stroke-opacity="0" stroke-width="1" stroke-linecap="square" stroke-linejoin="miter" stroke-miterlimit="2" transform="matrix(1,0,0,1,0,0)"
font-family="Tableau Semibold" font-size="11" font-weight="400" font-style="normal" 
>
<rect x="343" y="23" width="64" height="46"/>
</g>
</g>

<g  clip-path="url(#clip27)" 
>
<g fill="none" stroke="#4d4bf5" stroke-opacity="1" stroke-width="1" stroke-linecap="square" stroke-linejoin="bevel" transform="matrix(1,0,0,1,358,42)"
font-family="Tableau Semibold" font-size="11" font-weight="400" font-style="normal" 
>
<text fill="#4d4bf5" fill-opacity="1" stroke="none" xml:space="preserve" x="0" y="0" font-family="Tableau Semibold" font-size="11" font-weight="400" font-style="normal" 
 >Puzzle</text>
</g>
</g>

<g  clip-path="url(#clip27)" 
>
<g fill="none" stroke="#4d4bf5" stroke-opacity="1" stroke-width="1" stroke-linecap="square" stroke-linejoin="bevel" transform="matrix(1,0,0,1,358,57)"
font-family="Tableau Semibold" font-size="11" font-weight="400" font-style="normal" 
>
<text fill="#4d4bf5" fill-opacity="1" stroke="none" xml:space="preserve" x="0" y="0" font-family="Tableau Semibold" font-size="11" font-weight="400" font-style="normal" 
 >1,33%</text>
</g>
</g>

<g  clip-path="url(#clip27)" 
>
<g fill="none" stroke="#d4d4d4" stroke-opacity="1" stroke-width="1" stroke-linecap="square" stroke-linejoin="bevel" transform="matrix(1,0,0,1,0,0)"
font-family="Tableau Semibold" font-size="11" font-weight="400" font-style="normal" 
>
<polyline fill="none" vector-effect="none" points="463,99 400,175 " />
</g>
</g>

<g  clip-path="url(#clip27)" 
>
<g fill="#fafafa" fill-opacity="0.901961" stroke="none" transform="matrix(1,0,0,1,0,0)"
font-family="Tableau Semibold" font-size="11" font-weight="400" font-style="normal" 
>
<rect x="431" y="53" width="64" height="46"/>
</g>
</g>

<g  clip-path="url(#clip27)" 
>
<g fill="none" stroke="#000000" stroke-opacity="0" stroke-width="1" stroke-linecap="square" stroke-linejoin="miter" stroke-miterlimit="2" transform="matrix(1,0,0,1,0,0)"
font-family="Tableau Semibold" font-size="11" font-weight="400" font-style="normal" 
>
<rect x="431" y="53" width="64" height="46"/>
</g>
</g>

<g  clip-path="url(#clip27)" 
>
<g fill="none" stroke="#4d4bf5" stroke-opacity="1" stroke-width="1" stroke-linecap="square" stroke-linejoin="bevel" transform="matrix(1,0,0,1,445,72)"
font-family="Tableau Semibold" font-size="11" font-weight="400" font-style="normal" 
>
<text fill="#4d4bf5" fill-opacity="1" stroke="none" xml:space="preserve" x="0" y="0" font-family="Tableau Semibold" font-size="11" font-weight="400" font-style="normal" 
 >Racing</text>
</g>
</g>

<g  clip-path="url(#clip27)" 
>
<g fill="none" stroke="#4d4bf5" stroke-opacity="1" stroke-width="1" stroke-linecap="square" stroke-linejoin="bevel" transform="matrix(1,0,0,1,446,87)"
font-family="Tableau Semibold" font-size="11" font-weight="400" font-style="normal" 
>
<text fill="#4d4bf5" fill-opacity="1" stroke="none" xml:space="preserve" x="0" y="0" font-family="Tableau Semibold" font-size="11" font-weight="400" font-style="normal" 
 >0,84%</text>
</g>
</g>

<g  clip-path="url(#clip27)" 
>
<g fill="none" stroke="#d4d4d4" stroke-opacity="1" stroke-width="1" stroke-linecap="square" stroke-linejoin="bevel" transform="matrix(1,0,0,1,0,0)"
font-family="Tableau Semibold" font-size="11" font-weight="400" font-style="normal" 
>
<polyline fill="none" vector-effect="none" points="477,123 405,179 " />
</g>
</g>

<g  clip-path="url(#clip27)" 
>
<g fill="#fafafa" fill-opacity="0.901961" stroke="none" transform="matrix(1,0,0,1,0,0)"
font-family="Tableau Semibold" font-size="11" font-weight="400" font-style="normal" 
>
<rect x="477" y="100" width="64" height="46"/>
</g>
</g>

<g  clip-path="url(#clip27)" 
>
<g fill="none" stroke="#000000" stroke-opacity="0" stroke-width="1" stroke-linecap="square" stroke-linejoin="miter" stroke-miterlimit="2" transform="matrix(1,0,0,1,0,0)"
font-family="Tableau Semibold" font-size="11" font-weight="400" font-style="normal" 
>
<rect x="477" y="100" width="64" height="46"/>
</g>
</g>

<g  clip-path="url(#clip27)" 
>
<g fill="none" stroke="#4d4bf5" stroke-opacity="1" stroke-width="1" stroke-linecap="square" stroke-linejoin="bevel" transform="matrix(1,0,0,1,494,119)"
font-family="Tableau Semibold" font-size="11" font-weight="400" font-style="normal" 
>
<text fill="#4d4bf5" fill-opacity="1" stroke="none" xml:space="preserve" x="0" y="0" font-family="Tableau Semibold" font-size="11" font-weight="400" font-style="normal" 
 >Sport</text>
</g>
</g>

<g  clip-path="url(#clip27)" 
>
<g fill="none" stroke="#4d4bf5" stroke-opacity="1" stroke-width="1" stroke-linecap="square" stroke-linejoin="bevel" transform="matrix(1,0,0,1,492,134)"
font-family="Tableau Semibold" font-size="11" font-weight="400" font-style="normal" 
>
<text fill="#4d4bf5" fill-opacity="1" stroke="none" xml:space="preserve" x="0" y="0" font-family="Tableau Semibold" font-size="11" font-weight="400" font-style="normal" 
 >0,27%</text>
</g>
</g>

<clipPath id ="clip28" >
<rect x="0" y="0" height="664" width="812" transform="matrix(1,0,0,1,0,0)" />
</clipPath>
<g  clip-path="url(#clip28)" 
>
<g fill="none" stroke="#4d4bf5" stroke-opacity="1" stroke-width="1" stroke-linecap="square" stroke-linejoin="bevel" transform="matrix(1,0,0,1,0,0)"
font-family="Tableau Semibold" font-size="11" font-weight="400" font-style="normal" 
>
</g>
</g>

<g >
<g fill="none" stroke="#4d4bf5" stroke-opacity="1" stroke-width="1" stroke-linecap="square" stroke-linejoin="bevel" transform="matrix(1,0,0,1,0,0)"
font-family="Tableau Semibold" font-size="11" font-weight="400" font-style="normal" 
>
</g>
</g>
</g>
</svg>
